<svg xmlns="http://www.w3.org/2000/svg" data-name="Layer 1" viewBox="0 -10 100 125" x="0px" y="0px"><title>Artboard 5</title><path d="M30.31,20.57a8.14,8.14,0,0,0,8.13-8.13c0-2.34-1.84-5.76-5.48-10.19A3.42,3.42,0,0,0,30.31,1h0a3.42,3.42,0,0,0-2.65,1.25C24,6.68,22.18,10.11,22.18,12.44A8.14,8.14,0,0,0,30.31,20.57Zm0-15.24c2.85,3.56,4.13,6.12,4.13,7.11a4.13,4.13,0,1,1-8.26,0C26.18,11.45,27.46,8.9,30.31,5.34ZM50,20.57a8.14,8.14,0,0,0,8.13-8.13c0-2.34-1.84-5.77-5.48-10.19a3.42,3.42,0,0,0-5.3,0c-3.64,4.42-5.48,7.85-5.48,10.19A8.14,8.14,0,0,0,50,20.57ZM50,5.34c2.85,3.56,4.13,6.11,4.13,7.1a4.13,4.13,0,1,1-8.26,0C45.87,11.45,47.15,8.9,50,5.34ZM69.69,20.57a8.14,8.14,0,0,0,8.13-8.13c0-2.34-1.84-5.76-5.48-10.19a3.42,3.42,0,0,0-5.3,0c-3.64,4.43-5.48,7.85-5.48,10.19A8.14,8.14,0,0,0,69.69,20.57Zm0-15.24c2.85,3.56,4.13,6.12,4.13,7.11a4.13,4.13,0,1,1-8.26,0C65.56,11.45,66.84,8.9,69.69,5.34ZM9,59.53a21.56,21.56,0,0,0-2.4,10.28L6.49,91.94a6.62,6.62,0,0,0,6.59,6.66l6,0a6.49,6.49,0,0,0,4.7-1.91,6.58,6.58,0,0,0,2-4.67V90.57l48.1.26v1.47A6.63,6.63,0,0,0,80.42,99l6,0h0a6.63,6.63,0,0,0,6.63-6.59l.11-22.09A21.64,21.64,0,0,0,90.88,60a6.74,6.74,0,0,0,5.44-6.44c0-1.33,0-2.41,0-3.4a6.61,6.61,0,0,0-6.4-6.49l-1.8,0a8.88,8.88,0,0,0-4.27,1.16C82.28,40.9,79.78,35.14,78,32.51,74.49,27.44,69.48,26,66,25.4a91.17,91.17,0,0,0-15.87-1.12,91.27,91.27,0,0,0-15.88.95c-3.47.59-8.49,1.95-12,7-1.84,2.61-4.4,8.35-6,12.2a8.94,8.94,0,0,0-4.29-1.21l-1.77,0a6.61,6.61,0,0,0-6.47,6.41c0,1,0,2.08,0,3.4A6.75,6.75,0,0,0,9,59.53ZM7.68,49.79a2.59,2.59,0,0,1,2.59-2.58l1.62,0A5.74,5.74,0,0,1,15.7,49a2,2,0,0,0,3.23-.7c2.66-6.51,5.18-11.79,6.58-13.78,2.65-3.77,6.43-4.83,9.43-5.34a87.87,87.87,0,0,1,15.19-.89,87.71,87.71,0,0,1,15.18,1.06c3,.54,6.76,1.65,9.37,5.44,1.37,2,3.84,7.3,6.43,13.85a2,2,0,0,0,3.22.73,5.73,5.73,0,0,1,3.81-1.75l1.65,0a2.59,2.59,0,0,1,2.55,2.61h0c0,.91,0,1.92,0,3.17a2.75,2.75,0,0,1-2.72,2.69H87.37a2,2,0,0,0-1.61,3.19q.32.43.61.86a17.38,17.38,0,0,1,2.8,10.1l-.11,22.12A2.63,2.63,0,0,1,86.44,95h0l-6,0a2.63,2.63,0,0,1-2.61-2.64l0-3.47a2,2,0,0,0-2-2l-52.1-.29h0a2,2,0,0,0-2,2l0,3.47a2.62,2.62,0,0,1-2.62,2.61h0l-6,0A2.62,2.62,0,0,1,10.49,92l.13-22.16a17.34,17.34,0,0,1,2.91-10q.29-.43.62-.85a2,2,0,0,0-1.58-3.21h-.26l-2,0A2.75,2.75,0,0,1,7.66,53C7.64,51.72,7.64,50.71,7.68,49.79ZM74.36,61.3l-8.48,2.18a5.6,5.6,0,0,0,1.36,11l8.47,0h0A5.6,5.6,0,0,0,81.33,69V66.75a5.6,5.6,0,0,0-7-5.45Zm2.37,4.16a1.59,1.59,0,0,1,.62,1.27v2.22h0a1.6,1.6,0,0,1-1.6,1.59h0l-8.47,0a1.6,1.6,0,0,1-.39-3.15l8.48-2.18a1.62,1.62,0,0,1,.4-.05A1.59,1.59,0,0,1,76.73,65.46ZM25.48,54.2l49,.27h0a2,2,0,0,0,1.86-2.73c-1.58-4-4.67-11.5-6.26-13.82-1.16-1.68-2.83-2.59-5.77-3.12a83.15,83.15,0,0,0-14.22-1,83.28,83.28,0,0,0-14.23.81c-2.95.5-4.63,1.38-5.81,3.06-1.61,2.29-4.79,9.72-6.41,13.74a2,2,0,0,0,1.84,2.75ZM33.32,40c.28-.4.7-1,3.21-1.42a79.78,79.78,0,0,1,13.54-.76,79.78,79.78,0,0,1,13.54.91c2.5.45,2.93,1.07,3.19,1.45a79.41,79.41,0,0,1,4.74,10.26l-43.07-.24A79.9,79.9,0,0,1,33.32,40ZM24,74.26l8.47,0h0A5.6,5.6,0,0,0,34,63.3L25.54,61a5.6,5.6,0,0,0-7,5.38v2.22A5.6,5.6,0,0,0,24,74.26Zm-1.55-7.83a1.6,1.6,0,0,1,2-1.53L33,67.16a1.6,1.6,0,0,1-.41,3.14h0l-8.47,0a1.6,1.6,0,0,1-1.59-1.61Z"/></svg>