<svg xmlns="http://www.w3.org/2000/svg" xmlns:xlink="http://www.w3.org/1999/xlink" version="1.1" x="0px" y="0px" viewBox="0 -5 128 160" style="enable-background:new 0 0 128 128;" xml:space="preserve"><path d="M51,44c0,1.7,1.3,3,3,3h19c1.7,0,3-1.3,3-3s-1.3-3-3-3H54C52.3,41,51,42.3,51,44z"/><path d="M125.7,43.5l-60-42c-1-0.7-2.4-0.7-3.4,0l-60,42C1.5,44.1,1,45,1,46v78c0,1.7,1.3,3,3,3h20c0,0,0,0,0,0c0.2,0,0.4,0,0.6-0.1  c0.1,0,0.2-0.1,0.3-0.1c0.1,0,0.2,0,0.2-0.1c0.1-0.1,0.2-0.1,0.3-0.2c0.1,0,0.1-0.1,0.2-0.1c0.2-0.1,0.3-0.2,0.5-0.4L55.2,97H101v27  c0,1.7,1.3,3,3,3h20c1.7,0,3-1.3,3-3V46C127,45,126.5,44.1,125.7,43.5z M121,121h-14V94V64v-1c0-1.7-1.3-3-3-3H24c-1.7,0-3,1.3-3,3  v1v57H7V47.6L64,7.7l57,39.9V121z"/></svg>