<svg xmlns="http://www.w3.org/2000/svg" viewBox="0 -5 64 80" x="0px" y="0px"><defs><style>.cls-1{fill:none;stroke:#000;stroke-linejoin:round;stroke-width:2px;}</style></defs><title>hose-watering-gardening-Cleaning</title><g><rect class="cls-1" x="3" y="56" width="58" height="5" rx="2.5" ry="2.5"/><rect class="cls-1" x="6" y="51" width="52" height="5" rx="2.5" ry="2.5"/><rect class="cls-1" x="10" y="46" width="44" height="5" rx="2.5" ry="2.5"/><rect class="cls-1" x="13" y="41" width="38" height="5" rx="2.5" ry="2.5"/><path class="cls-1" d="M25,5H48a2,2,0,0,1,2,2v6a2,2,0,0,1-2,2H25a0,0,0,0,1,0,0V5a0,0,0,0,1,0,0Z"/><polygon class="cls-1" points="45 30 38 30 36 15 43 15 45 30"/><rect class="cls-1" x="21" y="3" width="4" height="14"/><polyline class="cls-1" points="45 5 45 10 33 10 33 5"/><line class="cls-1" x1="29" y1="5" x2="29" y2="15"/><line class="cls-1" x1="41" y1="5" x2="41" y2="10"/><line class="cls-1" x1="37" y1="5" x2="37" y2="10"/><rect class="cls-1" x="39" y="30" width="5" height="11"/><line class="cls-1" x1="39" y1="34" x2="44" y2="34"/><polyline class="cls-1" points="47 15 51 27 49 29"/><path class="cls-1" d="M11.909,9A2.955,2.955,0,0,1,9,6a2.955,2.955,0,0,1,2.909-3C15,3,17,6,17,6S15,9,11.909,9Z"/><path class="cls-1" d="M5.909,18a3,3,0,0,1,0-6C9,12,11,15,11,15S9,18,5.909,18Z"/></g></svg>