<svg xmlns="http://www.w3.org/2000/svg" xmlns:xlink="http://www.w3.org/1999/xlink" version="1.1" x="0px" y="0px" viewBox="0 -10 100 125" style="enable-background:new 0 0 100 100;" xml:space="preserve"><g><path d="M0.522,40.779c1.303,2.223,3.371,1.78,3.682,2.765c0.279,0.578,0.337,1.923-0.967,5.046   c-2.35,5.624-3.774,14.388,4.661,18.074c0.408,1.116,0.849,2.155,1.239,3.016c-1.264,0.919-2.275,2.413-2.275,4.612   c0,2.636,1.971,5.363,5.27,5.363c0.933,0,1.688-0.277,2.267-0.676c0.97,0.646,2.136,1.038,3.364,1.038   c5.099,0,6.872-2.259,7.233-2.711c0.355,0.438,2.223,2.711,7.212,2.711c1.228,0,2.394-0.392,3.362-1.038   c0.579,0.398,1.334,0.676,2.267,0.676c3.299,0,5.27-2.728,5.27-5.363c0-2.199-1.011-3.693-2.274-4.612   c0.411-0.907,4.266-8.735,1.848-13.046c-0.537-0.896-2.423-3.468-7.799-1.886v-1.193c3.74-4.201,2.559-8.298,2.342-9.101   c1.878-6.935-3.139-14.009-3.139-14.009L27.96,36.57c-0.921-0.092-4.795-0.092-5.716,0l-6.123-6.124c0,0-3.882,5.892-3.53,11.176   c-0.176-0.568-1.405-5.247-7.194-6.879C2.988,34.03-1.535,35.969,0.522,40.779z M15.088,53.292v1.456   c-1.176-0.344-2.845-0.774-5.037-0.251c0.199-0.781,2.258-6.02,2.608-7.44C12.695,49.388,13.592,51.542,15.088,53.292z    M35.052,44.48c2.042,6.847-4.211,11.145-9.95,11.145c-5.74,0-12.085-4.556-9.951-11.145c-0.564-1.791-1.216-5.649,1.301-10.413   l4.855,4.856c0.588-0.192,7-0.192,7.589,0l4.855-4.856C36.268,38.831,35.617,42.689,35.052,44.48z M37.294,77.481   c0.52-0.819,0.826-1.755,0.826-2.729c0-2.831-1.599-4.549-3.322-5.399V56.977c1.314-0.445,2.387-0.646,3.25-0.646   c7.406,0-0.452,14.666-0.452,14.666s3.21,0.278,3.21,3.489C40.806,75.969,39.611,77.791,37.294,77.481z M17.619,77.865   c-1.971,0-3.607-1.633-3.607-3.157c0-3.302,3.301-3.589,3.301-3.589V55.174c6.452,4.351,13.231,1.517,15.343,0.161v15.784   c0,0,3.3,0.287,3.3,3.589c0,1.524-1.636,3.157-3.606,3.157c-4.091,0-6.297-1.58-6.297-4.355c0-1.193,0-3.359,0-5.441   c2.15-0.505,3.751-2.433,3.751-4.736c-0.271,2.432-2.363,3.779-4.867,3.779c-2.503,0-4.595-1.348-4.865-3.779   c0,2.337,1.646,4.288,3.843,4.758c0,2.065,0,4.211,0,5.42C23.916,76.352,21.708,77.865,17.619,77.865z M2.37,37.979   c0.239-0.799,0.972-1.313,1.764-1.313c0.175,0,0.353,0.023,0.529,0.076c2.544,0.765,4.21,2.045,5.097,3.919   c1.167,2.468,0.847,5.792-0.978,10.16c-1.527,3.654-2.279,7.657,0.048,9.412c-0.007-5.228,5.047-3.438,6.346-2.998v12.221   c-1.702,0.84-3.281,2.536-3.281,5.331c0,0.963,0.303,1.887,0.815,2.695c-2.52,0.246-3.468-1.493-3.468-2.957   c0-3.172,3.17-3.446,3.17-3.446s-1.572-2.936-2.634-6.163c-1.396-0.413-3.545-1.39-4.896-3.65   C3.141,58.351,3.309,54.359,5.381,49.4c1.361-3.258,2.765-7.842-1.776-9.129C2.626,39.994,2.077,38.952,2.37,37.979z    M98.916,48.596c0,0-3.52,8.751-8.49,7.586c-0.92-2.847-3.218-5.771-10.148-3.854v-7.124c0.018-0.026,1.758-2.356,2.31-5.236   c0.383,0.108,5.688,1.209,5.688-6.359c0-5.624-5.741-12.601-10.304-13.509c-1.776-0.265-3.546,0.629-4.446,1.367   c-1.188-0.304-6.781-0.304-7.97,0c-0.911-0.759-2.282-1.847-4.409-1.367c-5.318,1.582-10.304,8.09-10.304,13.509   c0,6.21,3.989,6.952,5.669,6.364c0.367,3.209,2.249,5.176,2.325,5.281v7.074c-5.688-2.184-8.515,0.861-9.34,2.118   c-1.54,2.342-1.958,7.054,0.659,14.372c-1.513,0.996-2.768,2.699-2.768,5.274c0,3.157,2.992,5.925,6.403,5.925   c2.207,0,3.914-0.909,4.293-1.129c1.051,0.702,2.316,1.129,3.648,1.129c2.688,0,6.205-0.734,7.813-2.938   c1.553,2.203,5.141,2.938,7.838,2.938c1.332,0,2.598-0.427,3.648-1.129c0.379,0.22,2.086,1.129,4.293,1.129   c3.411,0,6.402-2.768,6.402-5.925c0-3.47-2.714-5.405-2.714-5.405C104.836,63.639,98.916,48.596,98.916,48.596z M57.707,35.482   c-0.561,1.203-1.662,2.133-2.652,2.133c-1.063,0-1.998-1.074-1.998-4.042c0-5.586,6.131-10.989,8.303-11.21   c2.278-0.232,2.891,1.184,3.375,1.819c1.305-0.573,8.298-0.575,9.599-0.007c0.47-0.617,1.884-2.107,3.425-1.813   c2.145,0.41,8.303,5.624,8.303,11.21c0,2.968-0.936,4.042-1.998,4.042c-0.99,0-2.092-0.931-2.651-2.133   c-1.057-2.263-3.483-7.129-4.79-7.129c-0.081,0,3.875,8.637,3.875,9.649c0,2.122-1.856,10.047-10.939,10.047   c-4.975,0-10.475-2.916-10.938-10.047c0-1.081,3.95-9.647,3.878-9.647C61.189,28.355,58.764,33.22,57.707,35.482z M49.852,74.29   c0-3.591,3.591-3.902,3.591-3.902s-7.094-16.404,1.59-16.404c1.055,0,2.348,0.245,3.91,0.79v13.684   c-5.227,2.908-3.441,7.842-2.712,8.765C52.002,78.906,49.852,75.95,49.852,74.29z M70.714,73.013c0-3.076,0-11.743,0-11.743   c-0.046-0.433-0.271-1.061-1.144-1.061c-0.919,0-1.137,0.587-1.17,1.104c0,0,0,8.696,0,11.7c0,3.005-2.389,4.713-6.814,4.713   c-2.133,0-3.904-1.768-3.904-3.418c0-3.572,3.574-3.884,3.574-3.884V47.56c7.765,4.933,14.691,1.429,16.604-0.006v22.87   c0,0,3.574,0.312,3.574,3.884c0,1.65-1.771,3.418-3.904,3.418C73.103,77.726,70.714,76.088,70.714,73.013z M89.157,74.241   c0,1.649-2.231,4.571-6.341,2.914c0.675-0.81,2.525-5.796-2.697-8.714V54.838c6.666-2.229,7.881,0.999,8.128,3.387   c7.263,2.289,9.816-4.172,9.816-4.172c-0.556,9.281-9.704,12.192-11.124,12.59c-0.677,2.155-1.352,3.718-1.352,3.718   S89.157,70.671,89.157,74.241z"/></g></svg>