<svg xmlns="http://www.w3.org/2000/svg" viewBox="25 -100 512 640" x="0px" y="0px"><title>Business &amp;amp; Finance Vol.4</title><g><path d="M227.6,375.86a5,5,0,0,1-3.54-1.46l-97.58-97.58a5,5,0,1,1,7.07-7.07l97.58,97.58a5,5,0,0,1-3.53,8.53Z"/><path d="M208.5,395a4.94,4.94,0,0,1-3.53-1.46l-97.58-97.58a5,5,0,0,1,7.07-7.07L212,386.42A5,5,0,0,1,208.5,395Z"/><path d="M327,255H173a5,5,0,0,1,0-10H327a5,5,0,0,1,0,10Z"/><path d="M249.94,334.5h0a33.69,33.69,0,1,1,23.82-9.87h0A33.47,33.47,0,0,1,249.94,334.5Zm0-57.38a23.69,23.69,0,1,0,16.75,40.44h0a23.69,23.69,0,0,0-16.75-40.44Z"/><path d="M249.94,235.5h0a33.68,33.68,0,1,1,23.82-9.86h0A33.46,33.46,0,0,1,249.94,235.5Zm0-57.38a23.69,23.69,0,1,0,16.75,40.44h0a23.69,23.69,0,0,0-16.75-40.44Z"/><path d="M338.36,501a33.71,33.71,0,0,1-13.15-2.67l-94.44-39.81a5,5,0,0,1,3.88-9.22l94.44,39.82a24.22,24.22,0,0,0,18.76,0,24.66,24.66,0,0,0,13.44-13.23L473.16,210.5c5.42-12.84,3.38-23.94-9.1-49.47L428.2,94A5,5,0,1,1,437,89.27l35.91,67.12.09.16c12.28,25.12,16.81,40.18,9.37,57.84L370.5,479.73A35.13,35.13,0,0,1,338.36,501Z"/><path d="M206.08,470.48a34.82,34.82,0,0,1-24.83-10.17L35.58,314.64C22,301.09,22.25,278.81,36.07,265L244.66,56.4c13.17-13.18,24.76-18.25,58.6-13.52l80.15,10.25c1.84.19,26.27,3.06,43.07,19.86,15.82,15.81,18.46,41.4,18.57,42.48l8.16,77.5c0,.06,0,.12,0,.19,2,28.53.45,44.55-13.39,58.4L231.23,460.15a35.24,35.24,0,0,1-25,10.33ZM282,51.16c-16.88,0-23,5-30.28,12.31L43.14,272.06C33.22,282,33,297.92,42.66,307.57L188.32,453.24c9.67,9.67,26.08,9.6,35.84-.16L432.75,244.49c10.13-10.13,12.49-21.48,10.5-50.56l-8.15-77.46c0-.26-2.44-23.16-15.69-36.41-14.52-14.52-36.85-17-37.08-17l-.13,0L301.93,52.79A145.81,145.81,0,0,0,282,51.16Z"/><path d="M347.74,185.16a37,37,0,1,1,26.16-10.84h0A36.76,36.76,0,0,1,347.74,185.16Zm0-64a27,27,0,1,0,19.09,46.08h0a27,27,0,0,0-19.09-46.08Z"/><path d="M379.48,149.32c-10.72,0-19.76-3.32-26.26-9.83A33.41,33.41,0,0,1,344,120.71a5,5,0,0,1,9.87-1.6,23.72,23.72,0,0,0,6.42,13.31c7.13,7.13,19.19,8.8,33.94,4.71,15.76-4.38,32.35-14.71,46.72-29.08,28.47-28.46,39.63-65.4,24.37-80.66s-52.2-4.1-80.66,24.37c-2.57,2.57-5.05,5.25-7.36,8a5,5,0,1,1-7.62-6.48c2.49-2.93,5.15-5.81,7.91-8.56,15.57-15.57,33.72-26.81,51.11-31.64,18.38-5.1,33.9-2.52,43.69,7.27S484.76,45.63,479.66,64C474.83,81.4,463.59,99.55,448,115.12s-33.72,26.81-51.11,31.64A65.6,65.6,0,0,1,379.48,149.32Z"/><path d="M408.76,453.94a4.9,4.9,0,0,1-1.82-.35,5,5,0,0,1-2.83-6.48l.36-.93a5,5,0,1,1,9.31,3.65l-.36.93A5,5,0,0,1,408.76,453.94Zm7.66-19.56a5,5,0,0,1-4.66-6.82l.36-.93a5,5,0,0,1,9.32,3.64l-.37.93A5,5,0,0,1,416.42,434.38Zm7.65-19.55a5.07,5.07,0,0,1-1.82-.35,5,5,0,0,1-2.84-6.48l.37-.93a5,5,0,0,1,9.31,3.64l-.36.94A5,5,0,0,1,424.07,414.83Zm7.65-19.56a4.86,4.86,0,0,1-1.82-.35,5,5,0,0,1-2.84-6.47l.37-.94a5,5,0,1,1,9.31,3.65l-.36.93A5,5,0,0,1,431.72,395.27Zm7.65-19.56a5.1,5.1,0,0,1-1.82-.34,5,5,0,0,1-2.83-6.48l.36-.93a5,5,0,1,1,9.31,3.64l-.36.93A5,5,0,0,1,439.37,375.71ZM447,356.16a4.9,4.9,0,0,1-1.82-.35,5,5,0,0,1-2.83-6.48l.36-.93a5,5,0,0,1,9.32,3.65l-.37.93A5,5,0,0,1,447,356.16Zm7.66-19.56a5.11,5.11,0,0,1-1.83-.34,5,5,0,0,1-2.83-6.48l.37-.94a5,5,0,1,1,9.31,3.65l-.37.93A5,5,0,0,1,454.68,336.6ZM462.33,317a5,5,0,0,1-4.66-6.82l.37-.93a5,5,0,0,1,9.31,3.64l-.36.93A5,5,0,0,1,462.33,317ZM470,297.49a4.9,4.9,0,0,1-1.82-.35,5,5,0,0,1-2.83-6.47l.36-.94a5,5,0,1,1,9.31,3.65l-.36.93A5,5,0,0,1,470,297.49Zm7.65-19.56a5.1,5.1,0,0,1-1.82-.34,5,5,0,0,1-2.83-6.48l.36-.93a5,5,0,1,1,9.32,3.64l-.37.93A5,5,0,0,1,477.63,277.93Z"/><path d="M380.73,359.3a4.9,4.9,0,0,1-2.1-.47l-15.73-7.29a5,5,0,0,1,4.2-9.08l15.73,7.3a5,5,0,0,1-2.1,9.54Z"/><path d="M369.62,383.91a4.89,4.89,0,0,1-2-.44L323,363.57a5,5,0,0,1,4.08-9.14l44.62,19.91a5,5,0,0,1-2,9.57Z"/><path d="M358.52,408.52a4.81,4.81,0,0,1-2-.45l-51.05-23a5,5,0,1,1,4.11-9.11l51.05,23a5,5,0,0,1-2.06,9.56Z"/><path d="M347.41,433.13a5,5,0,0,1-2.05-.44L283,404.56a5,5,0,0,1,4.1-9.12l62.42,28.13a5,5,0,0,1-2.06,9.56Z"/><path d="M308.05,445a5,5,0,0,1-2.05-.44l-22.79-10.29a5,5,0,1,1,4.12-9.11l22.78,10.28a5,5,0,0,1-2.06,9.56Z"/></g></svg>