<svg xmlns="http://www.w3.org/2000/svg" xmlns:xlink="http://www.w3.org/1999/xlink" version="1.1" x="0px" y="0px" viewBox="0 -15 128 160" style="enable-background:new 0 0 128 128;" xml:space="preserve"><style type="text/css">
	.st0{display:none;}
	.st1{display:inline;}
	.st2{fill:none;stroke:#000000;stroke-width:0.1;stroke-miterlimit:10;}
</style><g class="st0"><g class="st1"><rect class="st2" width="128" height="128"/><line class="st2" x1="0" y1="124" x2="128" y2="124"/><line class="st2" x1="0" y1="120" x2="128" y2="120"/><line class="st2" x1="0" y1="116" x2="128" y2="116"/><line class="st2" x1="0" y1="112" x2="128" y2="112"/><line class="st2" x1="0" y1="108" x2="128" y2="108"/><line class="st2" x1="0" y1="104" x2="128" y2="104"/><line class="st2" x1="0" y1="100" x2="128" y2="100"/><line class="st2" x1="0" y1="96" x2="128" y2="96"/><line class="st2" x1="0" y1="92" x2="128" y2="92"/><line class="st2" x1="0" y1="88" x2="128" y2="88"/><line class="st2" x1="0" y1="84" x2="128" y2="84"/><line class="st2" x1="0" y1="80" x2="128" y2="80"/><line class="st2" x1="0" y1="76" x2="128" y2="76"/><line class="st2" x1="0" y1="72" x2="128" y2="72"/><line class="st2" x1="0" y1="68" x2="128" y2="68"/><line class="st2" x1="0" y1="64" x2="128" y2="64"/><line class="st2" x1="0" y1="60" x2="128" y2="60"/><line class="st2" x1="0" y1="56" x2="128" y2="56"/><line class="st2" x1="0" y1="52" x2="128" y2="52"/><line class="st2" x1="0" y1="48" x2="128" y2="48"/><line class="st2" x1="0" y1="44" x2="128" y2="44"/><line class="st2" x1="0" y1="40" x2="128" y2="40"/><line class="st2" x1="0" y1="36" x2="128" y2="36"/><line class="st2" x1="0" y1="32" x2="128" y2="32"/><line class="st2" x1="0" y1="28" x2="128" y2="28"/><line class="st2" x1="0" y1="24" x2="128" y2="24"/><line class="st2" x1="0" y1="20" x2="128" y2="20"/><line class="st2" x1="0" y1="16" x2="128" y2="16"/><line class="st2" x1="0" y1="12" x2="128" y2="12"/><line class="st2" x1="0" y1="8" x2="128" y2="8"/><line class="st2" x1="0" y1="4" x2="128" y2="4"/><line class="st2" x1="124" y1="0" x2="124" y2="128"/><line class="st2" x1="120" y1="0" x2="120" y2="128"/><line class="st2" x1="116" y1="0" x2="116" y2="128"/><line class="st2" x1="112" y1="0" x2="112" y2="128"/><line class="st2" x1="108" y1="0" x2="108" y2="128"/><line class="st2" x1="104" y1="0" x2="104" y2="128"/><line class="st2" x1="100" y1="0" x2="100" y2="128"/><line class="st2" x1="96" y1="0" x2="96" y2="128"/><line class="st2" x1="92" y1="0" x2="92" y2="128"/><line class="st2" x1="88" y1="0" x2="88" y2="128"/><line class="st2" x1="84" y1="0" x2="84" y2="128"/><line class="st2" x1="80" y1="0" x2="80" y2="128"/><line class="st2" x1="76" y1="0" x2="76" y2="128"/><line class="st2" x1="72" y1="0" x2="72" y2="128"/><line class="st2" x1="68" y1="0" x2="68" y2="128"/><line class="st2" x1="64" y1="0" x2="64" y2="128"/><line class="st2" x1="60" y1="0" x2="60" y2="128"/><line class="st2" x1="56" y1="0" x2="56" y2="128"/><line class="st2" x1="52" y1="0" x2="52" y2="128"/><line class="st2" x1="48" y1="0" x2="48" y2="128"/><line class="st2" x1="44" y1="0" x2="44" y2="128"/><line class="st2" x1="40" y1="0" x2="40" y2="128"/><line class="st2" x1="36" y1="0" x2="36" y2="128"/><line class="st2" x1="32" y1="0" x2="32" y2="128"/><line class="st2" x1="28" y1="0" x2="28" y2="128"/><line class="st2" x1="24" y1="0" x2="24" y2="128"/><line class="st2" x1="20" y1="0" x2="20" y2="128"/><line class="st2" x1="16" y1="0" x2="16" y2="128"/><line class="st2" x1="12" y1="0" x2="12" y2="128"/><line class="st2" x1="8" y1="0" x2="8" y2="128"/><line class="st2" x1="4" y1="0" x2="4" y2="128"/></g></g><g><g><path d="M20.2,105.8c0.5,3.6,2.5,6,4.6,8.6c3.1,3.8,6.9,6.9,11.4,9.2c0.3,0.2,0.6,0.2,0.9,0.2c0,0,0.1,0,0.1,0v0H91c0,0,0,0,0,0    c0,0,0,0,0,0h0.4v0c0.2,0,0.4-0.1,0.5-0.2c4.5-2.4,8.3-5.5,11.4-9.2c2.1-2.5,4-5,4.6-8.6c0.8-5.3-1.4-13.3-7.4-14.9    c-0.6-5.6-1-9.5-1.1-11.7c-0.1-1.2-0.2-2.5-0.4-3.7c-0.2-1.2-0.4-2.5-0.6-3.7c-0.1-0.6-0.2-1.1-0.3-1.5l0-0.2    c-1.1-4.8-1.3-12.6-0.6-23.1c0.3-4.2-1.1-8.4-3.7-11.2c-2-2.1-4.5-3.3-7.2-3.3h-0.8h-9.9v-4.1h2.7c1.8,0,3.5-0.8,4.5-2    c0.9-1.1,1.2-2.4,0.9-3.7L80.5,8c-0.5-2.3-2.8-3.9-5.4-3.9H53.4c-2.6,0-4.9,1.6-5.4,3.9l-3.2,14.7c-0.3,1.3,0,2.6,0.9,3.7    c1,1.3,2.7,2,4.5,2h2.7v4.1h-9.4h-0.5v0c-2.5,0.1-4.8,1.3-6.7,3.2c-2.6,2.8-4,6.8-3.7,11c0.5,8.8,0,15.9-1.7,21.2l-0.1,0.3    C30.6,69,30.3,69.9,30,71c-0.9,3.4-1.4,6-1.5,6.5c-0.8,4.5-0.3,10.1,0,13.1c-0.1,0-0.2,0-0.3,0C21.7,92.1,19.3,100.4,20.2,105.8z     M27.8,111.9c-2.1-2.5-3.4-4.2-3.7-6.6c-0.6-3.9,1-9.8,5-10.6c2.8-0.6,6.1,1.3,8,4.5v20.5C33.5,117.6,30.4,115,27.8,111.9z     M87.4,119.9H41.1v-19.6c0.1-0.1,0.2-0.3,0.2-0.5h1.6h42.6h1.8V119.9z M46.9,64.8h34.6v31.1H46.9V64.8z M103.9,105.2    c-0.4,2.4-1.7,4.1-3.7,6.6c-2.4,3-5.4,5.5-8.8,7.5V99.7c1.5-3,4.2-5,6.7-5.1c0.2,0,0.3,0.1,0.5,0.1c0.1,0,0.1,0,0.2,0    c0,0,0.1,0,0.1,0c0,0,0,0,0.1,0C102.8,95.3,104.5,101.5,103.9,105.2z M86.4,36.6c2,0,3.4,1.1,4.2,2c1.9,2,2.8,5,2.6,8.2    c-0.7,11.1-0.5,19.1,0.7,24.3l0,0.2c0.1,0.3,0.2,0.8,0.3,1.4c0.2,1.1,0.4,2.3,0.6,3.4c0.2,1.1,0.3,2.3,0.3,3.4    c0.1,2.1,0.5,6,1.1,11.3c-2.7,0.6-5.4,2.4-7.3,5.1h-3.5V36.6H86.4z M48.8,24c-0.1-0.2-0.1-0.3-0.1-0.3l3.2-14.7    c0.1-0.3,0.6-0.8,1.5-0.8h21.8c0.9,0,1.4,0.4,1.5,0.8l3.2,14.7c0,0,0,0.2-0.1,0.3c-0.2,0.3-0.7,0.5-1.4,0.5H50.1    C49.4,24.5,49,24.2,48.8,24z M56.8,28.5h14.8v4.1H56.8V28.5z M81.6,36.6v24.2H46.9V36.6H81.6z M32.5,78.2c0.1-0.5,0.5-2.9,1.4-6.1    c0.3-1.1,0.6-1.9,0.7-2.5l0.1-0.3c1.7-5.8,2.4-13.4,1.8-22.6c-0.2-3.1,0.8-6.1,2.7-8.1c0.8-0.8,2.1-1.8,3.8-2v59.2h-3.2    c-1.9-2.6-4.4-4.3-7.2-5C32.3,88.3,31.8,82.6,32.5,78.2z"/></g></g></svg>