<svg xmlns="http://www.w3.org/2000/svg" xmlns:xlink="http://www.w3.org/1999/xlink" version="1.1" x="0px" y="0px" viewBox="0 -60 512 640" style="enable-background:new 0 0 512 512;" xml:space="preserve"><g><path d="M256,233.6c-9.4,0-17,7.6-17,17v129.3c0,9.4,7.6,17,17,17s17-7.6,17-17V250.6   C273,241.2,265.4,233.6,256,233.6z"/><path d="M187,233.6c-9.4,0-17,7.6-17,17v129.3c0,9.4,7.6,17,17,17s17-7.6,17-17V250.6   C204,241.2,196.4,233.6,187,233.6z"/><path d="M325,233.6c-9.4,0-17,7.6-17,17v129.3c0,9.4,7.6,17,17,17s17-7.6,17-17V250.6   C342,241.2,334.4,233.6,325,233.6z"/><path d="M413.9,62h-74.4c-0.7-25-21.5-45-47-45h-73.1c-25.5,0-46.2,20-47,45H98.1C77.7,62,61,79,61,99.4v54   c0,20,15.9,36.3,35.7,37l0.5,247.8c0.1,31.4,25.7,56.8,57,56.8h203.5c31.4,0,56.9-25.4,57-56.8l0.6-247.9   c19.8-0.7,35.7-17,35.7-36.9v-54C451,79,434.3,62,413.9,62z M219.5,51h73.1c6.7,0,12.3,5,12.9,11h-99C207.2,56,212.7,51,219.5,51z    M357.7,461H154.3c-12.7,0-23-10.4-23-23.1L130.8,190h250.5l-0.5,247.9C380.7,450.6,370.4,461,357.7,461z M417,153c0,1.7-1.3,3-3,3   H98c-1.7,0-3-1.3-3-3V99c0-1.7,1.3-3,3-3h316c1.7,0,3,1.3,3,3V153z"/></g></svg>